REM DIRINDEX 1\2\4,1\2\5,1\2\6,1\3\7,1\3\8,1\3\9,1\3\10
REM DIRNAME cjc057,folder01,folder02,folder03,folder04,folder05,folder06,folder07,folder08,folder09
TITLE ""
FILE "a_200.mp3" MP3
  TRACK 01 AUDIO
    TITLE "0:"
    INDEX 01 00:00:00
  TRACK 02 AUDIO
    TITLE "4:cjc057_04169"
    INDEX 01 00:00:13
  TRACK 03 AUDIO
    TITLE "0:"
    INDEX 01 00:01:22
  TRACK 04 AUDIO
    TITLE "5:cjc057_04170"
    INDEX 01 00:01:56
  TRACK 05 AUDIO
    TITLE "0:"
    INDEX 01 00:03:17
  TRACK 06 AUDIO
    TITLE "4:cjc057_04171"
    INDEX 01 00:04:25
  TRACK 07 AUDIO
    TITLE "0:"
    INDEX 01 00:05:44
  TRACK 08 AUDIO
    TITLE "5:cjc057_04172"
    INDEX 01 00:06:02
  TRACK 09 AUDIO
    TITLE "0:"
    INDEX 01 00:07:21
  TRACK 10 AUDIO
    TITLE "4:cjc057_04173"
    INDEX 01 00:08:26
  TRACK 11 AUDIO
    TITLE "0:"
    INDEX 01 00:09:38
  TRACK 12 AUDIO
    TITLE "5:cjc057_04174"
    INDEX 01 00:09:71
  TRACK 13 AUDIO
    TITLE "0:"
    INDEX 01 00:11:58
  TRACK 14 AUDIO
    TITLE "4:cjc057_04175"
    INDEX 01 00:12:65
  TRACK 15 AUDIO
    TITLE "0:"
    INDEX 01 00:14:02
  TRACK 16 AUDIO
    TITLE "5:cjc057_04176"
    INDEX 01 00:14:35
  TRACK 17 AUDIO
    TITLE "0:"
    INDEX 01 00:16:71
  TRACK 18 AUDIO
    TITLE "4:cjc057_04177"
    INDEX 01 00:18:03
  TRACK 19 AUDIO
    TITLE "0:"
    INDEX 01 00:19:28
  TRACK 20 AUDIO
    TITLE "5:cjc057_04178"
    INDEX 01 00:19:62
  TRACK 21 AUDIO
    TITLE "0:"
    INDEX 01 00:21:21
  TRACK 22 AUDIO
    TITLE "4:cjc057_04179"
    INDEX 01 00:22:29
  TRACK 23 AUDIO
    TITLE "0:"
    INDEX 01 00:23:40
  TRACK 24 AUDIO
    TITLE "5:cjc057_04180"
    INDEX 01 00:23:73
  TRACK 25 AUDIO
    TITLE "0:"
    INDEX 01 00:24:74
  TRACK 26 AUDIO
    TITLE "4:cjc057_04181"
    INDEX 01 00:26:07
  TRACK 27 AUDIO
    TITLE "0:"
    INDEX 01 00:27:32
  TRACK 28 AUDIO
    TITLE "5:cjc057_04182"
    INDEX 01 00:27:65
  TRACK 29 AUDIO
    TITLE "0:"
    INDEX 01 00:29:36
  TRACK 30 AUDIO
    TITLE "4:cjc057_04183"
    INDEX 01 00:30:46
  TRACK 31 AUDIO
    TITLE "0:"
    INDEX 01 00:32:00
  TRACK 32 AUDIO
    TITLE "5:cjc057_04184"
    INDEX 01 00:32:29
  TRACK 33 AUDIO
    TITLE "0:"
    INDEX 01 00:33:62
  TRACK 34 AUDIO
    TITLE "4:cjc057_04185"
    INDEX 01 00:34:71
  TRACK 35 AUDIO
    TITLE "0:"
    INDEX 01 00:36:05
  TRACK 36 AUDIO
    TITLE "5:cjc057_04186"
    INDEX 01 00:36:38
  TRACK 37 AUDIO
    TITLE "0:"
    INDEX 01 00:38:43
  TRACK 38 AUDIO
    TITLE "4:cjc057_04187"
    INDEX 01 00:39:52
  TRACK 39 AUDIO
    TITLE "0:"
    INDEX 01 00:41:16
  TRACK 40 AUDIO
    TITLE "5:cjc057_04188"
    INDEX 01 00:41:51
  TRACK 41 AUDIO
    TITLE "0:"
    INDEX 01 00:44:28
  TRACK 42 AUDIO
    TITLE "4:cjc057_04189"
    INDEX 01 00:45:35
  TRACK 43 AUDIO
    TITLE "0:"
    INDEX 01 00:46:74
  TRACK 44 AUDIO
    TITLE "5:cjc057_04190"
    INDEX 01 00:47:28
  TRACK 45 AUDIO
    TITLE "0:"
    INDEX 01 00:48:73
  TRACK 46 AUDIO
    TITLE "4:cjc057_04191"
    INDEX 01 00:50:07
  TRACK 47 AUDIO
    TITLE "0:"
    INDEX 01 00:51:22
  TRACK 48 AUDIO
    TITLE "5:cjc057_04192"
    INDEX 01 00:51:52
  TRACK 49 AUDIO
    TITLE "0:"
    INDEX 01 00:52:67
  TRACK 50 AUDIO
    TITLE "4:cjc057_04193"
    INDEX 01 00:54:01
  TRACK 51 AUDIO
    TITLE "0:"
    INDEX 01 00:55:44
  TRACK 52 AUDIO
    TITLE "5:cjc057_04194"
    INDEX 01 00:56:02
  TRACK 53 AUDIO
    TITLE "0:"
    INDEX 01 00:58:34
  TRACK 54 AUDIO
    TITLE "4:cjc057_04195"
    INDEX 01 00:59:39
  TRACK 55 AUDIO
    TITLE "0:"
    INDEX 01 01:00:53
  TRACK 56 AUDIO
    TITLE "5:cjc057_04196"
    INDEX 01 01:01:13
  TRACK 57 AUDIO
    TITLE "0:"
    INDEX 01 01:03:71
  TRACK 58 AUDIO
    TITLE "4:cjc057_04197"
    INDEX 01 01:05:03
  TRACK 59 AUDIO
    TITLE "0:"
    INDEX 01 01:06:28
  TRACK 60 AUDIO
    TITLE "5:cjc057_04198"
    INDEX 01 01:06:63
  TRACK 61 AUDIO
    TITLE "0:"
    INDEX 01 01:08:23
  TRACK 62 AUDIO
    TITLE "4:cjc057_04199"
    INDEX 01 01:09:30
  TRACK 63 AUDIO
    TITLE "0:"
    INDEX 01 01:10:45
  TRACK 64 AUDIO
    TITLE "5:cjc057_04200"
    INDEX 01 01:11:03
  TRACK 65 AUDIO
    TITLE "0:"
    INDEX 01 01:14:02
  TRACK 66 AUDIO
    TITLE "4:cjc057_04201"
    INDEX 01 01:15:09
  TRACK 67 AUDIO
    TITLE "0:"
    INDEX 01 01:16:34
  TRACK 68 AUDIO
    TITLE "5:cjc057_04202"
    INDEX 01 01:16:67
  TRACK 69 AUDIO
    TITLE "0:"
    INDEX 01 01:19:68
